<svg xmlns="http://www.w3.org/2000/svg" viewBox="0 0 64 64">
  <path style="fill: var(--primary)" d="M26.18 29.25c.97 1.47 5.85 9.57 5.82 25.75h-.17a2 2 0 01-1.42-.59l-1.24-1.24A4 4 0 0026.34 52h-3.17a7.89 7.89 0 00-6.5 3.46c-.43.35-.97.54-1.53.54-.72 0-1.36-.36-1.88-.87C6 48 6 32 6 32s.42-.28 1.11-.63a12.2 12.2 0 013.9-1.3c.33-.05.66-.07.99-.07h11.29c1.03 0 2.02-.26 2.89-.75zM36 55c-.03-16.18 4.85-24.28 5.82-25.75.87.49 1.86.75 2.89.75H56c3 0 6 2 6 2s0 16-7.26 23.13c-.52.51-1.16.87-1.88.87-.56 0-1.1-.19-1.53-.54a7.84 7.84 0 00-6.5-3.46h-3.17a4 4 0 00-2.83 1.17l-1.24 1.24a2 2 0 01-1.42.59z"/>
  <path style="fill: var(--shadow); fill: #e6e9ed" d="M39.34 26.68c.56 1.11 1.43 2 2.48 2.57-.97 1.47-5.85 9.57-5.82 25.75h-4c.03-16.18-4.85-24.28-5.82-25.75a5.98 5.98 0 002.48-2.57l.79-1.57A2 2 0 0131.24 24h5.52a2 2 0 011.79 1.11z"/>
  <g style="fill: var(--secondary)">
    <path d="M7.94 19.09L6 22l-3.93-1.97C2.29 16.53 3 13 3 13s3.22 2.69 4.94 6.09zM9 23c0 6 2 7 2 7l.01.07c-1.53.2-2.96.81-3.9 1.3L7 31s-3.64-2.92-4.71-6.88L7 26z"/>
    <path d="M12 30c-.33 0-.66.02-.99.07L11 30s-2-1-2-7l4 3 4-3c0 5-2 7-2 7zM16.55 19.34L13 22l-3.61-2.71C10.39 13.87 13 8 13 8s2.5 6.25 3.55 11.34zM23.93 20.03L20 22l-1.94-2.91C19.78 15.69 23 13 23 13s.71 3.53.93 7.03z"/>
    <path d="M19 26l4.66-1.86C22.69 27.31 20 30 20 30h-5s2-2 2-7z"/>
  </g>
  <path style="fill: var(--shadow); fill: #ffeaa7" d="M23.93 20.03c.04.67.07 1.33.07 1.97 0 .72-.13 1.44-.34 2.14L19 26l-2-3c0-1.34.43-2.67 1.06-3.91L20 22zM16.55 19.34c.27 1.35.45 2.61.45 3.66l-4 3-4-3c0-1.15.15-2.42.39-3.71L13 22zM7.94 19.09A8.74 8.74 0 019 23l-2 3-4.71-1.88A8.28 8.28 0 012 22c0-.64.03-1.3.07-1.97L6 22z"/>
  <path style="fill: var(--shadow); fill: #fcd770" d="M34 29l2 3-2 3-2-3z"/>
  <path style="fill: var(--shadow); fill: #69d6f4" d="M26.66 41.26L27 44h-8.7a6 6 0 01-5.96-5.26L12 36h8.7a6 6 0 015.96 5.26zM56 36l-.34 2.74A6 6 0 0149.7 44H41l.34-2.74A6 6 0 0147.3 36z"/>
  <path d="M20.7 35h-9.83l.48 3.87A7.01 7.01 0 0018.3 45h9.83l-.48-3.87A7.01 7.01 0 0020.7 35zm-2.4 8a5 5 0 01-4.96-4.38l-.2-1.62h7.56a5 5 0 014.96 4.38l.2 1.62zM37.2 32L34 27.2 30.8 32l3.2 4.8zM34 30.8l.8 1.2-.8 1.2-.8-1.2z"/>
  <path d="M62.55 31.17C62.42 31.08 59.27 29 56 29H44.7a4.97 4.97 0 01-4.46-2.76l-.8-1.58A2.98 2.98 0 0036.77 23h-5.52c-1.15 0-2.18.64-2.69 1.66l-.79 1.58A4.97 4.97 0 0123.3 29h-1.13c1.25-1.65 2.84-4.29 2.84-7 0-4.05-.98-8.99-1.02-9.2l-.33-1.64-1.3 1.07c-.17.15-3.2 2.7-5 6.08a84.04 84.04 0 00-3.42-10.68l-.88-2.2-.97 2.16c-.12.29-2.39 5.44-3.5 10.59a23.47 23.47 0 00-4.94-5.95l-1.3-1.07-.32 1.64C1.98 13.01 1 17.95 1 22c0 4.2 3.1 7.65 4.59 9.08l-.15.09-.44.3V32c0 .67.09 16.5 7.56 23.84A3.68 3.68 0 0015.14 57c.78 0 1.55-.27 2.16-.76l.2-.22A6.82 6.82 0 0123.17 53h3.17c.8 0 1.56.32 2.12.88l1.25 1.24c.56.57 1.32.88 2.12.88h4.34c.8 0 1.56-.31 2.12-.88l1.25-1.24a3.02 3.02 0 012.12-.88h3.17c2.28 0 4.4 1.13 5.67 3.02l.2.22c.61.5 1.38.76 2.16.76.91 0 1.8-.4 2.58-1.16C62.9 48.5 63 32.67 63 32v-.54zm-33-4.04l.8-1.58a1 1 0 01.89-.55h5.52a1 1 0 01.9.55l.79 1.58a7 7 0 002 2.42c-1.61 2.77-5.3 10.57-5.44 24.45h-2.02c-.15-13.88-3.83-21.68-5.45-24.45a7 7 0 002.01-2.42zM16.8 29a12 12 0 00.95-3.07l.87 1.3 3.15-1.26c-.8 1.4-1.75 2.53-2.2 3.03zm-5.42.02c-.29-.3-1.02-1.3-1.28-3.95l2.9 2.18 2.86-2.14A9.06 9.06 0 0114.52 29H12c-.2 0-.41 0-.62.02zM3 22v-.38l3.34 1.67 1.39-2.08c.14.5.23 1 .25 1.5l-1.36 2.06-3.47-1.39A7 7 0 013 22zm20 0c0 .46-.07.93-.18 1.4l-3.44 1.37-1.37-2.05c.03-.5.12-1 .26-1.5l1.39 2.07 3.33-1.67.01.38zm-7.02.51L13 24.75l-2.98-2.23c.02-.46.05-.93.11-1.42L13 23.25l2.85-2.13c.07.49.11.96.13 1.4zM22.34 15c.18 1.17.4 2.79.54 4.44l-2.54 1.27-1.12-1.68A20.34 20.34 0 0122.34 15zm-9.38-4.25c.76 2.1 1.83 5.3 2.47 8.17L13 20.75l-2.5-1.88c.61-3 1.68-6.08 2.46-8.12zM3.66 15c.94.96 2.2 2.4 3.12 4.03L5.66 20.7l-2.54-1.27c.13-1.65.36-3.27.54-4.44zm.43 10.91l3.3 1.32.8-1.22c.23 1.6.63 2.69 1.04 3.43-.64.19-1.24.41-1.76.65a15.86 15.86 0 01-3.38-4.18zM26.34 51h-3.17a8.82 8.82 0 00-7.23 3.76c-.56.37-1.3.33-1.98-.34C7.83 48.4 7.1 35.4 7.01 32.56 7.91 32.04 9.98 31 12 31h11.3c.87 0 1.7-.17 2.49-.47 1.42 2.46 4.96 9.9 5.18 23.03l-1.1-1.1A4.97 4.97 0 0026.35 51zm27.7 3.42c-.69.67-1.42.7-1.98.34A8.82 8.82 0 0044.83 51h-3.17c-1.34 0-2.6.52-3.54 1.46l-1.1 1.1c.23-13.14 3.77-20.58 5.2-23.03.78.3 1.61.47 2.49.47H56c2.01 0 4.1 1.04 4.99 1.56-.09 2.84-.81 15.83-6.95 21.86z"/>
  <path d="M40.35 41.13L39.87 45h9.83c3.53 0 6.51-2.64 6.95-6.13l.48-3.87H47.3a7.01 7.01 0 00-6.95 6.13zm14.31-2.51A5 5 0 0149.7 43h-7.57l.2-1.62A5 5 0 0147.3 37h7.57zM33 39h2v2h-2z"/>
</svg>