<svg xmlns="http://www.w3.org/2000/svg" viewBox="0 0 64 64">
  <path fill="#d3a06c" d="M13 21v38a3 3 0 11-6 0V21zM13 6v11H7V5a3 3 0 116 0z"/>
  <path fill="#beadf2" d="M7 17h6v4H7z"/>
  <path style="fill: var(--primary)" d="M35 6H13c0 7.4 4.5 14.3 11 17 1.4-1 3.4-2 6-2l.6-.5c.6-2.1 1.8-4.6 1.8-4.6a2.8 2.8 0 015.2 0s1.4 3 2 5.2l.4-.1c2.6 0 4.6 1 6 2 6.5-2.7 11-9.6 11-17z"/>
  <path style="fill: var(--secondary)" d="M22 25.2V25s.7-1 2-2c1.4-1 3.4-2 6-2l.6-.5c-.4 1-.6 2-.6 2.5 0 2 1.3 3 3 3h2c-1 3.5-2.5 6-4.3 7.6A9.8 9.8 0 0124 36a7 7 0 01-7-7 4 4 0 014-4c.3 0 .6 0 1 .2zM48 25.2a3 3 0 011-.2 4 4 0 014 4 7 7 0 01-7 7c-2.5 0-4.8-.8-6.6-2.4A15 15 0 0135 26h2c1.7 0 3-1 3-3 0-.5-.2-1.2-.4-1.9l.4-.1a10.6 10.6 0 018 4z"/>
  <path fill="#ff826e" d="M39.6 21.1c.3.8.4 1.4.4 1.9 0 2-1.3 3-3 3h-4c-1.7 0-3-1-3-3 0-.6.2-1.5.6-2.5.6-2.1 1.8-4.6 1.8-4.6a2.8 2.8 0 015.2 0s1.4 3 2 5.2z"/>
  <path fill="#69d6f4" d="M28.1 10.9A3 3 0 0126 16h-2a5 5 0 01-5-5c0-.6.5-1 1-1h6a3 3 0 012.1.9zM50 10c.6 0 1 .5 1 1a5 5 0 01-5 5h-2a3 3 0 110-6z"/>
  <path d="M49 24h-.5l-.7-.7C54 20 58 13.3 58 6V5H14a4 4 0 00-8 0v54a4 4 0 008 0V14.6c1.8 3.7 4.6 6.8 8.2 8.7l-.7.7H21a5 5 0 00-5 5 8 8 0 008 8c3.6 0 8.3-1.5 11-8 2.8 6.5 7.4 8 11 8a8 8 0 008-8 5 5 0 00-5-5zM8 18h4v2H8zm2 43a2 2 0 01-2-2V22h4v37a2 2 0 01-2 2zm2-45H8V5a2 2 0 014 0v1zm34 5.9c-1.4-1-3.3-1.8-5.7-1.9-.6-2-1.5-4-1.7-4.5-.5-1.2-1.4-2-2.6-2.4V7h20a17.8 17.8 0 01-10 14.9zM33 25c-.6 0-2-.2-2-2 0-1.2 1.4-4.7 2.3-6.7a1.8 1.8 0 013.4 0c.9 2 2.3 5.5 2.3 6.7 0 1.8-1.4 2-2 2zM14 7h20v6.1a3.8 3.8 0 00-2.6 2.4L29.7 20c-2.4 0-4.3 1-5.7 1.9A17.8 17.8 0 0114 7zm10 28a6 6 0 01-6-6 3 3 0 013-3c.9 0 2 .7 2 1.6 0 .7-.5 1.2-1.1 1.3l-1 .1.2 2 1-.1a3.3 3.3 0 002.9-3.3c0-1.1-.6-2-1.5-2.7 1-1 3-2.6 5.6-2.8l-.1.9c0 2.4 1.6 4 4 4h.6c-1.8 5.3-5 8-9.6 8zm22 0c-4.6 0-7.8-2.7-9.6-8h.6c2.4 0 4-1.6 4-4l-.1-1c2.7.3 4.7 2 5.6 2.9-.8.6-1.5 1.6-1.5 2.7 0 1.7 1.3 3 2.9 3.3h1l.3-1.9-1-.1c-.7 0-1.2-.6-1.2-1.3 0-.9 1.1-1.6 2-1.6a3 3 0 013 3 6 6 0 01-6 6z"/>
  <path d="M30 13a4 4 0 00-4-4h-6a2 2 0 00-2 2 6 6 0 006 6h2a4 4 0 004-4zm-4 2h-2a4 4 0 01-4-4h6a2 2 0 010 4zM44 17h2a6 6 0 006-6 2 2 0 00-2-2h-6a4 4 0 000 8zm0-6h6a4 4 0 01-4 4h-2a2 2 0 010-4z"/>
</svg>