<svg xmlns="http://www.w3.org/2000/svg" viewBox="0 0 496 496">
  <path style="fill: var(--secondary)" d="M344 440l-9-2c-19-4-33-18-37-37l-2-9-2 9c-4 19-18 33-37 37l-9 2c27 0 48 21 48 48l2-9c4-19 18-33 37-37zm0 0"/>
  <path style="fill: var(--primary)" d="M440 376l-9-2c-19-4-33-18-37-37l-2-9-2 9c-4 19-18 33-37 37l-9 2c27 0 48 21 48 48l2-9c4-19 18-33 37-37zm0 0"/>
  <path fill="#999" d="M88 256H56v216a16 16 0 1032 0zm0 0"/>
  <path fill="#bab8b9" d="M64 486c5-3 8-8 8-14V256H56v216c0 6 3 11 8 14zm0 0"/>
  <path fill="darkorange" d="M272 88a24 24 0 11-48 0 24 24 0 0148 0zm0 0"/>
  <path fill="green" d="M352 40a32 32 0 11-64 0 32 32 0 0164 0zm0 0"/>
  <path fill="#dc6068" d="M208 40a32 32 0 11-64 0 32 32 0 0164 0zm0 0"/>
  <path style="fill: var(--primary)" d="M8 104h128c62 0 112 50 112 112v80H136C65 296 8 239 8 168zm0 0"/>
  <path style="fill: var(--primary)" d="M112 104H8v64c0 71 57 128 128 128h88v-80c0-62-50-112-112-112zm0 0"/>
  <path style="fill: var(--primary)"  d="M248 296h112c71 0 128-57 128-128v-64H360c-62 0-112 50-112 112zm0 0"/>
  <path style="fill: var(--primary)" d="M464 168v-64H360c-62 0-112 50-112 112v80h88c71 0 128-57 128-128zm0 0"/>
  <path fill="papayawhip" d="M200 248h-64c-35 0-64-29-64-64v-16h64c35 0 64 29 64 64zm0 0M424 168h-64c-35 0-64 29-64 64v16h64c35 0 64-29 64-64zm0 0"/>
  <path d="M248 304H136C61 304 0 243 0 168v-64c0-4 4-8 8-8h128c66 0 120 54 120 120v80c0 4-4 8-8 8zM16 112v56c0 66 54 120 120 120h104v-72c0-57-47-104-104-104zm0 0"/>
  <path d="M200 256h-64c-40 0-72-32-72-72v-16c0-4 4-8 8-8h64c40 0 72 32 72 72v16c0 4-4 8-8 8zM80 176v8c0 31 25 56 56 56h56v-8c0-31-25-56-56-56zm0 0M360 304H248c-4 0-8-4-8-8v-80c0-66 54-120 120-120h128c4 0 8 4 8 8v64c0 75-61 136-136 136zm-104-16h104c66 0 120-54 120-120v-56H360c-57 0-104 47-104 104zm0 0"/>
  <path d="M360 256h-64c-4 0-8-4-8-8v-16c0-40 32-72 72-72h64c4 0 8 4 8 8v16c0 40-32 72-72 72zm-56-16h56c31 0 56-25 56-56v-8h-56c-31 0-56 25-56 56zm0 0M72 496c-13 0-24-11-24-24V264h16v208a8 8 0 0016 0V288h16v184c0 13-11 24-24 24zm0 0M248 120a32 32 0 110-64 32 32 0 010 64zm0-48a16 16 0 100 32 16 16 0 000-32zm0 0M320 80a40 40 0 110-80 40 40 0 010 80zm0-64a24 24 0 100 48 24 24 0 000-48zm0 0M176 80a40 40 0 110-80 40 40 0 010 80zm0-64a24 24 0 100 48 24 24 0 000-48zm0 0M392 432h-1c-4 0-7-4-7-8 0-22-18-40-40-40a8 8 0 01-2-16l9-2c16-3 28-15 31-31l2-9a8 8 0 0116 0l2 9c3 16 15 28 31 31l9 2a8 8 0 010 16l-9 2c-16 3-28 15-31 31l-2 9c-1 3-4 6-8 6zm-20-57c8 5 16 13 21 21 5-8 12-15 20-20-9-5-16-12-21-21-5 8-12 15-20 20zm0 0M296 496h-1c-4 0-7-4-7-8 0-22-18-40-40-40a8 8 0 01-2-16l9-2c16-3 28-15 31-31l2-9a8 8 0 0116 0l2 9c3 16 15 28 31 31l9 2a8 8 0 010 16l-9 2c-16 3-28 15-31 31l-2 9c-1 3-4 6-8 6zm-20-57c8 5 16 13 21 21 5-8 12-15 20-20-9-5-16-12-21-21-5 8-12 15-20 20zm0 0"/>
</svg>