<svg xmlns="http://www.w3.org/2000/svg" viewBox="0 0 483 483">
  <path fill="#fdb62f" d="M106 32H66c-23 0-40 18-40 40h72c35 0 64 29 64 64v96l40-40v-64c0-53-43-96-96-96z"/>
  <path fill="#ffa900" d="M98 72H26c0 22 17 40 40 40h24c17 0 32 14 32 32v48l40 40v-96c0-35-29-64-64-64z"/>
  <path fill="#f80" d="M386 80h72c0-22-18-40-40-40h-40c-53 0-96 43-96 96v64l40 40v-96c0-35 28-64 64-64z"/>
  <path fill="#e47700" d="M386 80c-36 0-64 29-64 64v96l40-40v-48c0-18 14-32 32-32h24c22 0 40-18 40-40h-72z"/>
  <path style="fill: var(--secondary)" d="M242 8v232l40-40V48c0-22-18-40-40-40z"/>
  <path style="fill: var(--secondary)" d="M202 48v152l40 40V8c-23 0-40 18-40 40z"/>
  <path style="fill: var(--primary)" d="M447 200c-29 0-57 12-77 32s-49 32-78 32H191c-29 0-57-12-77-32s-49-32-78-32H10v96c0 75 60 136 135 136 36 0 71 14 96 40h1c25-26 60-40 96-40 75 0 136-61 136-136v-96h-27zM166 384h-4c-53 0-96-43-96-96v-16c25 26 60 40 96 40h4a36 36 0 010 72zm252-96c0 53-43 96-96 96h-4a36 36 0 010-72h3c36 0 71-14 97-40v16z"/>
  <path fill="#89c9d2" d="M447 200h-5v88a156 156 0 01-107 144h3c75 0 136-61 136-136v-96h-27z"/>
  <path d="M166 304h-4c-34 0-67-13-91-38l-13-13v35c0 57 46 104 104 104h4a44 44 0 100-88zm0 72h-4c-48 0-87-38-88-86 25 19 56 30 88 30h4a28 28 0 110 56zM321 304h-3a44 44 0 100 88h4c57 0 103-47 104-104v-35l-14 13c-24 25-57 38-91 38zm1 72h-4a28 28 0 110-56h3c32 0 63-11 89-30-1 48-41 86-88 86z"/>
  <path d="M447 192c-31 0-61 12-83 34-10 10-22 18-34 23v-6l37-37 3-6v-48c0-13 10-24 24-24h24a48 48 0 100-96h-40c-36 0-69 18-88 49V48c0-23-17-43-40-47V0h-16v1c-24 4-40 24-40 47v25c-19-31-53-49-88-49H66a48 48 0 000 96h24c13 0 24 11 24 24v48c0 2 0 4 2 6l38 37v14c-13-5-25-13-35-23-22-22-52-34-83-34H2v104c0 80 64 144 143 144 34 0 67 13 91 38l6 5 5-6c24-24 57-37 91-37 79 0 143-64 144-144V192h-35zm-155 64h-42v-13l32-32 32 32v11l-22 2zm126-144h-24c-23 0-40 18-40 40v45l-24 24v-77c0-31 25-56 56-56h62c-3 14-16 24-30 24zm-40-64h40c14 0 27 10 30 24h-62c-40 0-72 32-72 72v77l-24-24v-61c0-49 39-88 88-88zm-104 0v149l-24 24V17c14 4 23 16 24 31zm-64 0c0-15 9-27 24-31v204l-24-24V48zM66 40h40c48 0 87 39 88 88v61l-24 24v-77c-1-40-33-72-72-72H35c3-14 16-24 31-24zm64 149v-45c0-22-18-40-40-40H66c-15 0-28-10-31-24h63c30 0 56 25 56 56v77l-24-24zm40 46l28-28 36 36v13h-43l-21-2v-19zm296 61c-1 71-58 128-128 128-36 0-70 13-96 37-27-24-61-37-97-37-70 0-127-57-127-128v-88h18c27 0 53 11 72 30 22 22 52 34 83 34h101c31 0 61-12 83-34 19-19 45-30 72-30h19v88z"/>
</svg>